<?xml version="1.0" encoding="utf-8"?>
<!-- Generator: Adobe Illustrator 26.0.1, SVG Export Plug-In . SVG Version: 6.00 Build 0)  -->
<svg version="1.1" id="Layer_1" xmlns="http://www.w3.org/2000/svg" xmlns:xlink="http://www.w3.org/1999/xlink" x="0px" y="0px"
	 viewBox="0 0 298.85 55.41" style="enable-background:new 0 0 298.85 55.41;" xml:space="preserve">
<style type="text/css">
	.st0{fill:#FFFFFF;}
	.st1{fill:#00AEEF;}
</style>
<g>
	<g>
		<path class="st0" d="M0,37.18c0,9.61,7.82,17.43,17.43,17.43c9.61,0,17.43-7.82,17.43-17.43V20.89H0V37.18z"/>
		<path class="st0" d="M0,17.43v1.17h34.87v-1.17C34.87,7.82,27.05,0,17.43,0C7.82,0,0,7.82,0,17.43z M19.37,8.13v5.06
			c0,0.91-0.87,1.64-1.94,1.64c-1.07,0-1.94-0.73-1.94-1.64V8.13c0-0.91,0.87-1.64,1.94-1.64C18.5,6.49,19.37,7.22,19.37,8.13z"/>
	</g>
	<g>
		<path class="st1" d="M221.97,38.12c1.97,1.58,4.38,2.37,7.22,2.37c2.21,0,4.1-0.78,5.67-2.36c1.57-1.57,2.36-3.46,2.36-5.67
			c0-2.21-0.78-4.1-2.36-5.67c-1.57-1.57-3.46-2.36-5.67-2.36c-2.55,0-4.63,1-6.24,3.01l-1.62-1.23c0.93-1.17,2.08-2.09,3.46-2.77
			c1.38-0.68,2.84-1.02,4.4-1.02c2.77,0,5.13,0.98,7.09,2.94c1.96,1.96,2.94,4.33,2.94,7.09c0,2.77-0.98,5.13-2.94,7.09
			c-1.96,1.96-4.32,2.94-7.09,2.94c-2.64,0-5.04-0.64-7.22-1.92v2.03c2.21,1.26,4.62,1.9,7.22,1.9c3.33,0,6.16-1.18,8.52-3.54
			c2.35-2.36,3.53-5.19,3.53-8.5c0-3.31-1.18-6.14-3.53-8.5c-2.35-2.36-5.19-3.54-8.52-3.54c-1.86,0-3.61,0.4-5.25,1.2
			c-1.64,0.8-3.02,1.9-4.14,3.32l-1.59-1.23c1.3-1.65,2.91-2.95,4.84-3.89c1.92-0.94,3.97-1.41,6.15-1.41c2.55,0,4.9,0.63,7.05,1.88
			c2.16,1.25,3.86,2.96,5.11,5.11c1.25,2.16,1.88,4.51,1.88,7.05c0,2.55-0.63,4.9-1.88,7.05c-1.25,2.16-2.96,3.86-5.11,5.11
			c-2.16,1.25-4.51,1.88-7.05,1.88c-2.56,0-4.97-0.54-7.22-1.62v2.06c2.25,1.04,4.65,1.56,7.22,1.56c2.17,0,4.25-0.42,6.23-1.27
			c1.98-0.85,3.69-1.99,5.13-3.43c1.44-1.44,2.58-3.15,3.43-5.13c0.85-1.98,1.27-4.06,1.27-6.23s-0.42-4.25-1.27-6.23
			c-0.85-1.98-1.99-3.69-3.43-5.13c-1.44-1.44-3.15-2.58-5.13-3.43c-1.98-0.85-4.06-1.27-6.23-1.27c-2.49,0-4.83,0.54-7.02,1.62
			c-2.19,1.08-4.04,2.56-5.55,4.43l-1.56-1.25c1.69-2.12,3.77-3.78,6.23-4.99c2.46-1.21,5.1-1.81,7.9-1.81
			c2.45,0,4.79,0.48,7.02,1.44c2.23,0.96,4.15,2.24,5.76,3.85c1.61,1.61,2.89,3.53,3.85,5.76c0.96,2.23,1.44,4.57,1.44,7.02
			s-0.48,4.79-1.44,7.02c-0.96,2.23-2.24,4.15-3.85,5.76c-1.61,1.61-3.53,2.89-5.76,3.85c-2.23,0.96-4.57,1.44-7.02,1.44
			c-2.49,0-4.9-0.46-7.22-1.39v2.06c2.3,0.89,4.71,1.34,7.22,1.34c2.71,0,5.31-0.53,7.79-1.59c2.48-1.06,4.62-2.49,6.41-4.28
			c1.79-1.79,3.22-3.93,4.28-6.41c1.06-2.48,1.59-5.08,1.59-7.79c0-2.71-0.53-5.31-1.59-7.79s-2.49-4.62-4.28-6.41
			c-1.79-1.79-3.93-3.22-6.41-4.28c-2.48-1.06-5.08-1.59-7.79-1.59c-3.1,0-6.02,0.67-8.74,2.01c-2.72,1.34-5.02,3.17-6.9,5.49
			l-1.62-1.2c2.06-2.58,4.6-4.61,7.61-6.09s6.23-2.22,9.64-2.22c2.99,0,5.85,0.59,8.57,1.76c2.72,1.17,5.07,2.74,7.04,4.71
			c1.97,1.97,3.54,4.32,4.71,7.04c1.17,2.72,1.76,5.58,1.76,8.57c0,2.99-0.59,5.85-1.76,8.57c-1.17,2.72-2.74,5.07-4.71,7.04
			c-1.97,1.97-4.32,3.54-7.04,4.71c-2.72,1.17-5.58,1.76-8.57,1.76c-3.18,0-6.25-0.67-9.23-2.01V32.18h2.01V38.12z M217.96,52.53
			h-2.01V32.18h2.01V52.53z M213.94,52.53h-2.01V32.18h2.01V52.53z M209.93,52.53h-2.01V32.18h2.01V52.53z"/>
		<g>
			<path class="st0" d="M52.02,40.06c-1.33-3.09-1.99-6.34-1.99-9.74s0.66-6.65,1.99-9.74c1.33-3.09,3.11-5.76,5.35-8
				c2.24-2.24,4.91-4.02,8-5.35c3.09-1.33,6.34-1.99,9.74-1.99s6.65,0.66,9.74,1.99c3.09,1.33,5.76,3.11,8,5.35
				c2.24,2.24,4.02,4.91,5.35,8c1.33,3.09,1.99,6.34,1.99,9.74s-0.66,6.65-1.99,9.74c-1.33,3.09-3.11,5.76-5.35,8
				c-2.24,2.24-4.91,4.02-8,5.35c-3.09,1.33-6.34,1.99-9.74,1.99s-6.65-0.66-9.74-1.99s-5.76-3.11-8-5.35
				C55.13,45.82,53.35,43.16,52.02,40.06z M53.86,21.36c-1.22,2.85-1.83,5.84-1.83,8.96s0.61,6.11,1.83,8.96
				c1.22,2.85,2.86,5.31,4.92,7.37c2.06,2.06,4.52,3.7,7.37,4.92c2.85,1.22,5.84,1.83,8.96,1.83s6.11-0.61,8.96-1.83
				c2.85-1.22,5.31-2.86,7.37-4.92s3.7-4.52,4.92-7.37c1.22-2.85,1.83-5.84,1.83-8.96s-0.61-6.11-1.83-8.96
				c-1.22-2.85-2.86-5.31-4.92-7.37s-4.52-3.7-7.37-4.92c-2.85-1.22-5.84-1.83-8.96-1.83S69,7.85,66.15,9.07
				c-2.85,1.22-5.31,2.86-7.37,4.92C56.71,16.05,55.07,18.51,53.86,21.36z M56.87,40.88c-1.89-3.23-2.83-6.75-2.83-10.56
				c0-3.81,0.94-7.33,2.83-10.56c1.89-3.23,4.45-5.79,7.68-7.68c3.23-1.89,6.75-2.83,10.56-2.83c3.81,0,7.33,0.94,10.56,2.83
				c3.23,1.89,5.79,4.45,7.68,7.68c1.89,3.23,2.83,6.75,2.83,10.56c0,3.81-0.94,7.33-2.83,10.56c-1.89,3.23-4.45,5.79-7.68,7.68
				c-3.23,1.89-6.75,2.83-10.56,2.83c-3.81,0-7.33-0.94-10.56-2.83C61.31,46.68,58.75,44.12,56.87,40.88z M57.55,22.91
				c-1,2.36-1.51,4.83-1.51,7.41c0,2.58,0.5,5.05,1.51,7.41c1,2.36,2.36,4.39,4.06,6.09c1.7,1.7,3.73,3.05,6.09,4.06
				c2.36,1,4.83,1.51,7.41,1.51c2.58,0,5.05-0.5,7.41-1.51c2.36-1,4.39-2.36,6.09-4.06c1.7-1.7,3.05-3.73,4.06-6.09
				c1-2.36,1.51-4.83,1.51-7.41c0-2.58-0.5-5.05-1.51-7.41c-1-2.36-2.36-4.39-4.06-6.09c-1.7-1.7-3.73-3.05-6.09-4.06
				c-2.36-1-4.83-1.51-7.41-1.51c-2.58,0-5.05,0.5-7.41,1.51c-2.36,1-4.39,2.36-6.09,4.06C59.91,18.52,58.55,20.55,57.55,22.91z
				 M60.34,38.88c-1.52-2.62-2.29-5.47-2.29-8.56c0-3.08,0.76-5.94,2.29-8.56c1.52-2.62,3.6-4.69,6.22-6.22
				c2.62-1.52,5.47-2.29,8.56-2.29c3.08,0,5.94,0.76,8.56,2.29c2.62,1.52,4.69,3.6,6.22,6.22c1.52,2.62,2.29,5.47,2.29,8.56
				c0,3.08-0.76,5.94-2.29,8.56c-1.52,2.62-3.6,4.69-6.22,6.22c-2.62,1.52-5.47,2.29-8.56,2.29c-3.08,0-5.94-0.76-8.56-2.29
				C63.93,43.57,61.86,41.5,60.34,38.88z M62.08,22.77c-1.35,2.3-2.02,4.82-2.02,7.55s0.67,5.25,2.02,7.55
				c1.35,2.3,3.17,4.13,5.48,5.48c2.3,1.35,4.82,2.02,7.55,2.02s5.25-0.67,7.55-2.02c2.3-1.35,4.13-3.17,5.48-5.48
				c1.35-2.3,2.02-4.82,2.02-7.55s-0.67-5.25-2.02-7.55c-1.35-2.3-3.17-4.13-5.48-5.48c-2.3-1.35-4.82-2.02-7.55-2.02
				s-5.25,0.67-7.55,2.02C65.25,18.64,63.43,20.46,62.08,22.77z M63.1,35.38c-0.69-1.61-1.03-3.29-1.03-5.06
				c0-1.77,0.34-3.45,1.03-5.06c0.69-1.61,1.62-3,2.79-4.17c1.17-1.17,2.56-2.1,4.17-2.79c1.61-0.69,3.29-1.03,5.06-1.03
				c1.77,0,3.45,0.34,5.06,1.03c1.61,0.69,3,1.62,4.17,2.79c1.17,1.17,2.1,2.56,2.79,4.17c0.69,1.61,1.03,3.29,1.03,5.06
				c0,1.77-0.34,3.45-1.03,5.06c-0.69,1.61-1.62,3-2.79,4.17c-1.17,1.17-2.56,2.1-4.17,2.79c-1.61,0.69-3.29,1.03-5.06,1.03
				c-1.77,0-3.45-0.34-5.06-1.03c-1.61-0.69-3-1.62-4.17-2.79C64.71,38.38,63.78,36.99,63.1,35.38z M67.31,22.52
				c-2.16,2.16-3.23,4.76-3.23,7.8c0,3.05,1.08,5.65,3.23,7.8c2.16,2.16,4.76,3.23,7.8,3.23c3.05,0,5.65-1.08,7.8-3.23
				c2.16-2.16,3.23-4.76,3.23-7.8c0-3.05-1.08-5.65-3.23-7.8c-2.16-2.16-4.76-3.23-7.8-3.23C72.06,19.28,69.46,20.36,67.31,22.52z"
				/>
			<path class="st0" d="M142.03,53.4h-2.01V28.31c0-2.03-0.45-3.97-1.35-5.83c-0.9-1.86-2.11-3.46-3.64-4.81
				c-1.52-1.35-3.34-2.42-5.44-3.22c-2.1-0.8-4.29-1.2-6.58-1.2c-3.14,0-5.99,0.59-8.54,1.77c-2.56,1.18-4.6,2.93-6.15,5.24
				c-1.54,2.31-2.31,4.99-2.31,8.04V53.4h-2.01V28.31c0-2.56,0.5-4.92,1.51-7.08c1-2.16,2.36-3.96,4.08-5.41
				c1.72-1.45,3.73-2.57,6.05-3.37c2.31-0.8,4.77-1.2,7.37-1.2c4.61,0,8.6,1.16,11.99,3.48c3.38-2.32,7.38-3.48,11.99-3.48
				c2.6,0,5.06,0.4,7.37,1.2c2.31,0.8,4.33,1.92,6.05,3.37c1.72,1.45,3.08,3.25,4.08,5.41c1,2.16,1.51,4.52,1.51,7.08V53.4H164
				V28.31c0-3.03-0.77-5.7-2.31-8.01c-1.54-2.31-3.59-4.06-6.15-5.25c-2.56-1.19-5.4-1.78-8.54-1.78c-3.94,0-7.38,0.93-10.31,2.79
				c0.43,0.37,0.9,0.85,1.42,1.45c2.55-1.49,5.51-2.23,8.89-2.23c2.06,0,4,0.3,5.83,0.89c1.82,0.59,3.41,1.44,4.77,2.52
				c1.36,1.09,2.43,2.46,3.22,4.11c0.79,1.65,1.18,3.49,1.18,5.52V53.4h-2.01V28.31c0-1.75-0.34-3.33-1.02-4.74
				c-0.68-1.41-1.61-2.57-2.8-3.48c-1.19-0.91-2.56-1.61-4.13-2.09c-1.56-0.48-3.24-0.72-5.05-0.72c-2.95,0-5.51,0.6-7.67,1.81
				c0.33,0.52,0.67,1.1,1,1.73c1.82-1.02,4.04-1.53,6.66-1.53c2.06,0,3.91,0.32,5.53,0.96c1.63,0.64,2.94,1.66,3.94,3.05
				c1,1.39,1.51,3.07,1.51,5.02V53.4h-2.01V28.31c0-2.36-0.83-4.12-2.49-5.28c-1.66-1.16-3.82-1.74-6.48-1.74
				c-2.42,0-4.38,0.45-5.88,1.34c0.24,0.71,0.43,1.38,0.56,2.01c1.17-0.89,2.95-1.34,5.32-1.34c4.65,0,6.97,1.67,6.97,5.02V53.4
				h-2.01V28.31c0-0.54-0.09-1-0.26-1.38c-0.18-0.38-0.4-0.67-0.68-0.88c-0.28-0.2-0.65-0.37-1.1-0.49c-0.46-0.12-0.9-0.2-1.32-0.22
				c-0.43-0.03-0.96-0.04-1.59-0.04c-0.63,0-1.16,0.01-1.59,0.04c-0.43,0.03-0.87,0.1-1.32,0.22c-0.46,0.12-0.82,0.28-1.1,0.49
				c-0.28,0.2-0.51,0.5-0.68,0.88c-0.18,0.38-0.26,0.84-0.26,1.38V53.4z M138.02,28.31V53.4h-2.01V28.31c0-1.75-0.34-3.33-1.02-4.74
				c-0.68-1.41-1.61-2.57-2.8-3.48c-1.19-0.91-2.56-1.61-4.13-2.09c-1.56-0.48-3.24-0.72-5.05-0.72c-1.8,0-3.48,0.24-5.05,0.72
				c-1.56,0.48-2.94,1.18-4.13,2.09c-1.19,0.91-2.12,2.07-2.8,3.48c-0.68,1.41-1.02,2.99-1.02,4.74V53.4h-2.01V28.31
				c0-2.03,0.39-3.86,1.18-5.52c0.79-1.65,1.86-3.02,3.22-4.11c1.36-1.09,2.95-1.93,4.77-2.52c1.82-0.59,3.76-0.89,5.83-0.89
				c2.06,0,4,0.3,5.83,0.89c1.82,0.59,3.41,1.44,4.77,2.52c1.36,1.09,2.43,2.46,3.22,4.11C137.62,24.45,138.02,26.29,138.02,28.31z
				 M134.01,28.31V53.4H132V28.31c0-2.36-0.83-4.12-2.49-5.28c-1.66-1.16-3.82-1.74-6.48-1.74c-2.66,0-4.82,0.58-6.48,1.74
				c-1.66,1.16-2.49,2.92-2.49,5.28V53.4h-2.01V28.31c0-1.95,0.5-3.62,1.51-5.02c1-1.39,2.32-2.41,3.94-3.05
				c1.63-0.64,3.47-0.96,5.53-0.96c2.06,0,3.91,0.32,5.53,0.96c1.63,0.64,2.94,1.66,3.94,3.05
				C133.5,24.69,134.01,26.36,134.01,28.31z M129.99,28.31V53.4h-2.01V28.31c0-0.54-0.09-1-0.26-1.38c-0.18-0.38-0.4-0.67-0.68-0.88
				c-0.28-0.2-0.65-0.37-1.1-0.49c-0.46-0.12-0.9-0.2-1.32-0.22c-0.43-0.03-0.96-0.04-1.59-0.04c-0.63,0-1.16,0.01-1.59,0.04
				c-0.43,0.03-0.87,0.1-1.32,0.22c-0.46,0.12-0.82,0.28-1.1,0.49c-0.28,0.2-0.51,0.5-0.68,0.88c-0.18,0.38-0.26,0.84-0.26,1.38
				V53.4h-2.01V28.31c0-3.34,2.32-5.02,6.97-5.02C127.67,23.3,129.99,24.97,129.99,28.31z"/>
			<path class="st0" d="M173.03,53.4h-2.01V13.26h2.01V53.4z M177.04,53.4h-2.01V13.26h2.01V53.4z M181.06,53.4h-2.01V13.26h2.01
				V53.4z M185.07,43.36h19.2v2.01h-19.2v2.01h19.2v2.01h-19.2v2.01h19.2v2.01h-21.21V13.26h21.21v2.01h-19.2v2.01h19.2v2.01h-19.2
				v2.01h19.2v2.01h-19.2v4.99h18.09v2.01h-18.09v2.01h18.09v2.01h-18.09v2.01h18.09v2.01h-18.09V43.36z"/>
			<path class="st0" d="M298.85,33.61V53.4h-2.01V33.61c0-3.79-0.88-7.18-2.65-10.16c-1.77-2.98-4.17-5.29-7.22-6.91
				c-3.05-1.63-6.45-2.44-10.2-2.44c-3.61,0-6.9,0.86-9.89,2.59c-2.99,1.73-5.34,4.06-7.05,7.01c-1.71,2.95-2.56,6.16-2.56,9.63
				c0,2.29,0.37,4.46,1.1,6.51c0.73,2.05,1.74,3.85,3.01,5.38c1.27,1.53,2.74,2.86,4.4,3.97c1.66,1.11,3.46,1.96,5.38,2.54
				c1.92,0.58,3.88,0.86,5.87,0.86c2.19,0,4.27-0.42,6.24-1.25v2.06c-2.06,0.72-4.18,1.09-6.36,1.09c-2.25,0-4.44-0.32-6.56-0.95
				c-2.13-0.63-4.1-1.57-5.91-2.8c-1.81-1.24-3.41-2.69-4.78-4.38c-1.38-1.68-2.45-3.65-3.23-5.9c-0.78-2.25-1.17-4.63-1.17-7.14
				c0-2.88,0.54-5.63,1.63-8.24c1.09-2.61,2.57-4.87,4.46-6.77c1.89-1.9,4.17-3.42,6.86-4.54c2.68-1.12,5.54-1.69,8.57-1.69
				c3.08,0,5.98,0.52,8.7,1.56c2.71,1.04,5.05,2.49,7.02,4.33c1.97,1.85,3.52,4.12,4.65,6.81C298.28,27.5,298.85,30.43,298.85,33.61
				z M294.83,33.61V53.4h-2.01V33.61c0-3.07-0.7-5.78-2.1-8.15c-1.4-2.37-3.32-4.19-5.76-5.45c-2.43-1.26-5.17-1.9-8.19-1.9
				c-2.88,0-5.51,0.68-7.89,2.05c-2.38,1.37-4.24,3.21-5.59,5.53c-1.35,2.32-2.02,4.87-2.02,7.64c0,2.38,0.44,4.55,1.31,6.51
				c0.87,1.96,2.05,3.57,3.53,4.84c1.48,1.26,3.16,2.24,5.05,2.94c1.89,0.7,3.86,1.05,5.92,1.05c2.1,0,4.16-0.44,6.19-1.31v2.03
				c-2.12,0.8-4.2,1.2-6.24,1.2c-3.21,0-6.17-0.72-8.86-2.17c-2.69-1.45-4.85-3.5-6.47-6.16c-1.62-2.66-2.42-5.63-2.42-8.92
				c0-2.34,0.45-4.57,1.35-6.69c0.9-2.12,2.12-3.95,3.67-5.49c1.54-1.54,3.4-2.77,5.57-3.68c2.17-0.91,4.48-1.37,6.91-1.37
				c3.4,0,6.47,0.72,9.21,2.17c2.74,1.45,4.9,3.51,6.48,6.19C294.04,27.14,294.83,30.19,294.83,33.61z M290.82,33.61V53.4h-2.01
				V33.61c0-3.51-1.12-6.3-3.37-8.38c-2.25-2.07-5.14-3.11-8.67-3.11c-3.27,0-6,1.09-8.19,3.26c-2.19,2.17-3.29,4.82-3.29,7.94
				c0,1.9,0.33,3.6,0.99,5.1c0.66,1.51,1.56,2.71,2.69,3.62c1.13,0.91,2.4,1.6,3.8,2.08c1.4,0.47,2.88,0.71,4.45,0.71
				c2.12,0,4.13-0.49,6.05-1.48v2.12c-2.01,0.84-4.03,1.25-6.08,1.25c-1.84,0-3.59-0.28-5.24-0.85c-1.65-0.57-3.13-1.39-4.43-2.48
				c-1.3-1.09-2.33-2.5-3.09-4.24c-0.76-1.74-1.14-3.68-1.14-5.84c0-3.66,1.3-6.78,3.89-9.35c2.59-2.57,5.79-3.86,9.6-3.86
				c2.68,0,5.07,0.54,7.19,1.63c2.12,1.09,3.79,2.66,5.02,4.72S290.82,30.92,290.82,33.61z M284.8,33.61c0-2.38-0.73-4.22-2.2-5.52
				c-1.47-1.3-3.41-1.95-5.83-1.95c-2.04,0-3.8,0.71-5.27,2.12c-1.47,1.41-2.2,3.1-2.2,5.07c0,1.11,0.15,2.11,0.45,3
				c0.3,0.88,0.7,1.62,1.21,2.2c0.51,0.59,1.12,1.07,1.83,1.45c0.71,0.38,1.44,0.66,2.22,0.82c0.77,0.17,1.59,0.25,2.47,0.25
				c2.12,0,4.05-0.52,5.8-1.56v2.01c-1.8,0.95-3.74,1.42-5.83,1.42c-1.34,0-2.6-0.18-3.78-0.54c-1.18-0.36-2.25-0.91-3.22-1.64
				c-0.97-0.73-1.73-1.74-2.3-3.01c-0.57-1.27-0.85-2.74-0.85-4.39c0-2.56,0.9-4.74,2.7-6.52c1.8-1.78,4.06-2.68,6.77-2.68
				c2.99,0,5.41,0.84,7.26,2.52c1.85,1.68,2.77,4,2.77,6.95V53.4h-2.01V33.61z"/>
		</g>
	</g>
</g>
</svg>
